<?xml version="1.0" encoding="utf-8"?>
<!-- Generator: Adobe Illustrator 24.2.0, SVG Export Plug-In . SVG Version: 6.00 Build 0)  -->
<svg version="1.1" id="Layer_1" xmlns="http://www.w3.org/2000/svg" xmlns:xlink="http://www.w3.org/1999/xlink" x="0px" y="0px"
	 viewBox="0 0 1366 768" style="enable-background:new 0 0 1366 768;" xml:space="preserve">
<style type="text/css">
	.st0{fill:#999999;}
	.st1{fill:#FFFFFF;}
</style>
<g>
	<circle class="st0" cx="683" cy="393" r="327"/>
</g>
<g>
	<g>
		<path class="st1" d="M497.4,569.99c-1.16,0.12-2.32,0.33-3.48,0.36c-6.04,0.12-9.34-5.1-6.07-10.15
			c9.98-15.42,13.73-32.22,12.47-50.44c-0.7-10.17-0.41-20.37,4.36-29.8c8.75-17.25,31.28-28.53,51.51-24.99
			c5.84,1.02,8.46-0.53,11.26-5.36c25.82-44.43,61.13-80.33,101.2-111.95c57.91-45.71,115.7-91.56,173.53-137.36
			c3.29-2.6,6.78-4.2,10.23-0.76c3.41,3.41,1.87,6.93-0.63,10.29c-34.46,46.39-68.52,93.08-103.48,139.1
			c-20.3,26.72-41.48,52.81-63.23,78.36c-22.03,25.88-49.81,45.05-78.57,62.68c-4.2,2.58-5.36,4.88-4.61,9.77
			c3.75,24.46-8.51,45.93-31.35,55.26c-19.77,8.08-40.72,11.08-61.71,13.82c-3.8,0.5-7.61,0.85-11.42,1.27
			C497.41,570.07,497.41,570.03,497.4,569.99z M654.46,440.04c5.96-5.8,11.7-10.46,16.32-16.04c21.35-25.75,42.93-51.33,63.41-77.76
			c26.01-33.57,51.03-67.9,76.47-101.92c0.91-1.22,1.65-2.57,2.46-3.86c-1.93,0.28-3.18,1.03-4.31,1.94
			c-46.59,37.23-93.4,74.18-139.61,111.87c-16.72,13.64-32.04,29-47.91,43.68c-3.95,3.65-3.66,4.44,1.05,7.19
			c2.29,1.34,4.52,2.81,6.66,4.39C639.61,417.36,648.11,427.04,654.46,440.04z M506.48,552.19c1.75-0.35,2.42-0.35,2.96-0.6
			c2.71-1.27,5.45-2.51,8.07-3.95c16.59-9.15,31.23-20.88,44.99-33.83c1.75-1.65,4.54-3.05,6.81-3c1.75,0.04,4.67,2.41,4.86,4.01
			c0.29,2.4-0.6,5.88-2.32,7.42c-9.41,8.43-19.23,16.41-28.92,24.53c-1.33,1.11-2.75,2.12-4.13,3.18
			c12.15-1.65,23.7-4.49,34.23-10.47c1.72-0.98,3.36-2.2,4.81-3.54c12.72-11.78,15.58-32.51,6.73-48.32
			c-8.84-15.8-27.75-24.11-45.35-18.96c-20.65,6.05-27.32,18.33-26.17,37.05C514.02,521.35,513.21,536.66,506.48,552.19z
			 M597.74,481.31c14.29-10.14,29.22-20.65,43.97-31.4c0.95-0.69,1.22-3.59,0.61-4.93c-6.36-14.05-17.32-23.76-30.49-31.16
			c-1.05-0.59-3.84,0.22-4.71,1.29c-4.6,5.68-9.02,11.53-13.16,17.55c-6.28,9.13-12.29,18.45-17.97,27.02
			C583.29,466.93,589.94,473.55,597.74,481.31z"/>
		<path class="st1" d="M654.46,440.04c-6.34-13-14.85-22.68-25.46-30.51c-2.14-1.58-4.37-3.05-6.66-4.39
			c-4.7-2.75-4.99-3.54-1.05-7.19c15.87-14.67,31.19-30.04,47.91-43.68c46.21-37.69,93.02-74.64,139.61-111.87
			c1.13-0.9,2.37-1.66,4.31-1.94c-0.82,1.29-1.55,2.64-2.46,3.86c-25.43,34.02-50.46,68.35-76.47,101.92
			c-20.48,26.43-42.06,52.02-63.41,77.76C666.15,429.58,660.42,434.24,654.46,440.04z"/>
		<path class="st0" d="M506.48,552.19c6.72-15.53,7.53-30.84,6.58-46.47c-1.14-18.72,5.52-31,26.17-37.05
			c17.6-5.16,36.5,3.16,45.35,18.96c8.85,15.81,5.99,36.54-6.73,48.32c-1.45,1.35-3.09,2.56-4.81,3.54
			c-10.52,5.98-22.08,8.81-34.23,10.47c1.38-1.06,2.8-2.07,4.13-3.18c9.69-8.12,19.51-16.1,28.92-24.53
			c1.72-1.54,2.6-5.02,2.32-7.42c-0.19-1.6-3.11-3.97-4.86-4.01c-2.27-0.06-5.06,1.35-6.81,3c-13.75,12.95-28.39,24.68-44.99,33.83
			c-2.62,1.44-5.36,2.68-8.07,3.95C508.9,551.84,508.24,551.85,506.48,552.19z M540.35,481.29c-2.58,1.5-4.59,2.33-6.19,3.65
			c-11.01,9.11-14.3,21.53-14.65,35.08c-0.13,4.99,2.38,7.81,6.36,7.87c3.94,0.06,6.31-2.56,6.49-7.71
			c0.37-10.69,2.86-20.23,11.97-27.21c1.46-1.11,1.88-4.93,1.24-7.02C545.01,484.11,542.29,482.92,540.35,481.29z"/>
		<path class="st0" d="M597.74,481.31c-7.81-7.77-14.45-14.38-21.74-21.64c5.68-8.57,11.68-17.89,17.97-27.02
			c4.14-6.02,8.56-11.87,13.16-17.55c0.86-1.07,3.66-1.88,4.71-1.29c13.17,7.4,24.13,17.12,30.49,31.16
			c0.6,1.33,0.33,4.24-0.61,4.93C626.96,460.67,612.03,471.18,597.74,481.31z"/>
		<path class="st1" d="M540.35,481.29c1.94,1.63,4.66,2.82,5.22,4.67c0.64,2.09,0.22,5.91-1.24,7.02
			c-9.11,6.97-11.61,16.52-11.97,27.21c-0.18,5.15-2.55,7.77-6.49,7.71c-3.98-0.06-6.49-2.88-6.36-7.87
			c0.35-13.55,3.65-25.98,14.65-35.08C535.76,483.62,537.77,482.79,540.35,481.29z"/>
	</g>
</g>
</svg>
