<?xml version="1.0" encoding="utf-8"?>
<!-- Generator: Adobe Illustrator 25.1.0, SVG Export Plug-In . SVG Version: 6.00 Build 0)  -->
<svg version="1.1" id="Layer_1" xmlns="http://www.w3.org/2000/svg" xmlns:xlink="http://www.w3.org/1999/xlink" x="0px" y="0px"
	 viewBox="0 0 891.39 891.39" style="enable-background:new 0 0 891.39 891.39;" xml:space="preserve">
<style type="text/css">
	.st0{fill:#999999;}
	.st1{fill:#FFFFFF;}
	.st2{fill:#999999;stroke:#999999;stroke-width:11;stroke-miterlimit:10;}
	.st3{fill:none;stroke:#999999;stroke-width:11;stroke-miterlimit:10;}
	.st4{fill:#FFFFFF;stroke:#FFFFFF;stroke-width:11;stroke-miterlimit:10;}
	.st5{fill:#999999;stroke:#FFFFFF;stroke-width:11;stroke-miterlimit:10;}
</style>
<circle class="st0" cx="445.5" cy="445.89" r="445.5"/>
<g>
	<path class="st1" d="M445.23,698.61c-67.55,0-131.06-26.31-178.82-74.07s-74.07-111.27-74.07-178.82
		c0-67.55,26.31-131.06,74.07-178.82s111.27-74.07,178.82-74.07c67.55,0,131.06,26.31,178.82,74.07s74.07,111.27,74.07,178.82
		c0,67.55-26.3,131.06-74.07,178.82S512.78,698.61,445.23,698.61z"/>
	<path class="st1" d="M445.23,198.33c33.4,0,65.8,6.54,96.29,19.44c29.46,12.46,55.92,30.3,78.64,53.02
		c22.72,22.72,40.56,49.18,53.02,78.64c12.9,30.49,19.44,62.89,19.44,96.29s-6.54,65.8-19.44,96.29
		c-12.46,29.46-30.3,55.92-53.02,78.64c-22.72,22.72-49.18,40.56-78.64,53.02c-30.49,12.9-62.89,19.44-96.29,19.44
		s-65.8-6.54-96.29-19.44c-29.46-12.46-55.92-30.3-78.64-53.02c-22.72-22.72-40.56-49.18-53.02-78.64
		c-12.9-30.49-19.44-62.89-19.44-96.29s6.54-65.8,19.44-96.29c12.46-29.46,30.3-55.92,53.02-78.64
		c22.72-22.72,49.18-40.56,78.64-53.02C379.43,204.87,411.83,198.33,445.23,198.33 M445.23,187.33
		c-142.7,0-258.39,115.69-258.39,258.39s115.69,258.39,258.39,258.39s258.39-115.69,258.39-258.39S587.93,187.33,445.23,187.33
		L445.23,187.33z"/>
</g>
<line class="st2" x1="221.5" y1="307.89" x2="288.64" y2="439.76"/>
<line class="st2" x1="672.5" y1="302.89" x2="603.15" y2="439.76"/>
<path class="st3" d="M405.6,502.47h-97.4c-10.81,0-19.56-8.76-19.56-19.56v-43.8c0-10.81,8.76-19.56,19.56-19.56h97.4
	c10.81,0,19.56,8.76,19.56,19.56v43.8C425.16,493.71,416.4,502.47,405.6,502.47z"/>
<path class="st3" d="M585.47,502.47H482.29c-9.21,0-16.68-7.47-16.68-16.68v-49.58c0-9.21,7.47-16.68,16.68-16.68h103.18
	c9.21,0,16.68,7.47,16.68,16.68v49.58C602.14,495,594.68,502.47,585.47,502.47z"/>
<line class="st2" x1="425.16" y1="461" x2="465.62" y2="461"/>
<circle class="st2" cx="365.88" cy="461.51" r="6.57"/>
<circle class="st2" cx="521.88" cy="461.51" r="6.57"/>
<path class="st2" d="M377.13,572.28c19.94,3.2,42.08,5.22,66.12,5.06c25.14-0.17,48.23-2.71,68.89-6.46"/>
<rect x="509.76" y="441.38" class="st4" width="24.27" height="3.03"/>
<rect x="355.75" y="441.38" class="st5" width="21.24" height="3.03"/>
</svg>
