<?xml version="1.0" encoding="utf-8"?>
<!-- Generator: Adobe Illustrator 25.1.0, SVG Export Plug-In . SVG Version: 6.00 Build 0)  -->
<svg version="1.1" id="Layer_1" xmlns="http://www.w3.org/2000/svg" xmlns:xlink="http://www.w3.org/1999/xlink" x="0px" y="0px"
	 viewBox="0 0 768 768" style="enable-background:new 0 0 768 768;" xml:space="preserve">
<style type="text/css">
	.st0{fill:#999999;}
	.st1{fill:none;stroke:#FFFFFF;stroke-width:5;stroke-miterlimit:10;}
	.st2{fill:#FFFFFF;stroke:#FFFFFF;stroke-width:4;stroke-miterlimit:10;}
	.st3{fill:none;stroke:#FFFFFF;stroke-width:7;stroke-miterlimit:10;}
	.st4{fill:#FFFFFF;}
</style>
<circle class="st0" cx="384.5" cy="384.5" r="383.5"/>
<line class="st1" x1="123.43" y1="235.06" x2="199.05" y2="383.9"/>
<line class="st1" x1="649.17" y1="232.66" x2="572.35" y2="383.9"/>
<path class="st1" d="M341.53,458.32H218.62c-10.81,0-19.56-8.76-19.56-19.56v-59.3c0-10.81,8.76-19.56,19.56-19.56h122.91
	c10.81,0,19.56,8.76,19.56,19.56v59.3C361.09,449.56,352.33,458.32,341.53,458.32z"/>
<path class="st1" d="M554.47,458.32H425.78c-9.21,0-16.68-7.47-16.68-16.68v-65.07c0-9.21,7.47-16.68,16.68-16.68h128.69
	c9.21,0,16.68,7.47,16.68,16.68v65.07C571.15,450.85,563.68,458.32,554.47,458.32z"/>
<line class="st1" x1="361.09" y1="409.11" x2="409.11" y2="409.11"/>
<circle class="st2" cx="277.67" cy="409.71" r="7.8"/>
<circle class="st2" cx="490.13" cy="409.71" r="7.8"/>
<path class="st3" d="M304.08,541.18c23.66,3.79,49.95,6.2,78.47,6.01c29.84-0.2,57.24-3.22,81.77-7.67"/>
<g>
	<path class="st4" d="M385.1,83.42c40.73,0,80.24,7.98,117.43,23.71c35.92,15.19,68.19,36.95,95.89,64.65
		c27.71,27.71,49.46,59.97,64.65,95.89c15.73,37.19,23.71,76.7,23.71,117.43s-7.98,80.24-23.71,117.43
		c-15.19,35.92-36.95,68.19-64.65,95.89c-27.71,27.71-59.97,49.46-95.89,64.65c-37.19,15.73-76.7,23.71-117.43,23.71
		s-80.24-7.98-117.43-23.71c-35.92-15.19-68.19-36.95-95.89-64.65c-27.71-27.71-49.46-59.97-64.65-95.89
		c-15.73-37.19-23.71-76.7-23.71-117.43s7.98-80.24,23.71-117.43c15.19-35.92,36.95-68.19,64.65-95.89
		c27.71-27.71,59.97-49.46,95.89-64.65C304.86,91.4,344.37,83.42,385.1,83.42 M385.1,78.42c-169.37,0-306.68,137.31-306.68,306.68
		S215.73,691.78,385.1,691.78S691.78,554.47,691.78,385.1S554.47,78.42,385.1,78.42L385.1,78.42z"/>
</g>
<rect x="476.92" y="396.5" class="st0" width="28.81" height="3.6"/>
<rect x="264.47" y="396.5" class="st0" width="25.21" height="3.6"/>
</svg>
