<svg id="Layer_1" data-name="Layer 1" xmlns="http://www.w3.org/2000/svg" viewBox="0 0 443.32584 443.32584">
	<defs>
		<style>
			.cls-1{fill:#a7a9ac;}.cls-2{fill:#fff;}
		</style>
	</defs>
	<circle class="cls-1" cx="221.66292" cy="221.66292" r="221.66292" />
	<path class="cls-2" d="M373.27282,329.93065a43.409,43.409,0,0,0,0-61.2096l-4.64505-4.645a43.409,43.409,0,0,0-61.20955,0l-10.08856,10.08857-9.66578-9.66577a43.409,43.409,0,0,0-61.20964,0l-4.645,4.645a43.409,43.409,0,0,0,0,61.2096l9.66587,9.66577,65.8546,65.85464,65.85464-65.85464Z" transform="translate(-75.87809 -181.79775)" />
	<path class="cls-2" d="M291.77467,508.1928V459.86705a22.816,22.816,0,0,0-6.64436-17.51861l-60.83873-60.83869a22.84106,22.84106,0,0,0-32.30214,0l0,0a22.84107,22.84107,0,0,0,0,32.30209l35.40426,35.40431H219.6578l-50.265-50.26505v-65.7128a23.71489,23.71489,0,0,0-23.71489-23.71489h-.00005a23.71489,23.71489,0,0,0-23.71489,23.71489v76.30982a23.68986,23.68986,0,0,0,10.90143,19.95048l78.69414,78.69415Z" transform="translate(-75.87809 -181.79775)" />
	<path class="cls-2" d="M138.33568,329.7818h74.90559a5.9891,5.9891,0,0,1,5.9891,5.9891v29.37285a5.9891,5.9891,0,0,1-5.9891,5.9891H138.33573a5.9891,5.9891,0,0,1-5.9891-5.9891v-29.3729A5.98905,5.98905,0,0,1,138.33568,329.7818Z" />
	<path class="cls-2" d="M448.6404,310.08041h0a23.7149,23.7149,0,0,0-23.71494,23.71489v65.7128l-50.265,50.265h-7.73585l35.40421-35.40431a22.841,22.841,0,0,0,0-32.30209l0,0a22.841,22.841,0,0,0-32.30209,0L309.1879,442.90539a22.85236,22.85236,0,0,0-6.64436,17.51861v48.32571h80.21618l78.69415-78.69411a23.68986,23.68986,0,0,0,10.90142-19.95052V333.7953A23.71492,23.71492,0,0,0,448.6404,310.08041Z" transform="translate(-75.87809 -181.79775)" />
	<rect class="cls-2" x="223.33168" y="330.33871" width="86.88374" height="41.3511" rx="5.9891" />
</svg>
