<?xml version="1.0" encoding="utf-8"?>
<!-- Generator: Adobe Illustrator 24.2.0, SVG Export Plug-In . SVG Version: 6.00 Build 0)  -->
<svg version="1.1" id="Layer_1" xmlns="http://www.w3.org/2000/svg" xmlns:xlink="http://www.w3.org/1999/xlink" x="0px" y="0px"
	 viewBox="0 0 1366 768" style="enable-background:new 0 0 1366 768;" xml:space="preserve">
<style type="text/css">
	.st0{fill:#999999;}
	.st1{fill:#FFFFFF;}
</style>
<g>
	<g>
		<circle class="st0" cx="671.5" cy="392.5" r="365.5"/>
		<path class="st1" d="M665.58,558.56c-1.27-99.93-2.52-198.19-3.76-296.26c7.49-0.53,13.87-0.99,20.46-1.46
			c0,98.08,0,196.91,0,297.71c9.69,0,20.22-0.07,30.75,0.04c3.25,0.04,9.04-0.13,9.34,0.99c3.74,13.59,15.48,6.46,24.19,9.68
			c0,4.79,0,9.82,0,15.61c-48.12,0-96.14,0-145.12,0c0-5.09,0-10.13,0-16.74c4.58,0,9.14,0.72,13.31-0.24
			c3.07-0.71,5.51-3.86,8.47-5.48c2.89-1.58,6.05-3.55,9.16-3.69C642.63,558.27,652.92,558.56,665.58,558.56z"/>
		<path class="st1" d="M452.29,240.98c9.66-22.82,24.89-29.08,43.47-22.41c7.87,2.83,16.52,4.73,24.85,4.84
			c39.93,0.49,79.88-0.05,119.82,0.42c9.33,0.11,14.19-1.78,15.56-12.05c1.67-12.57,15.14-19.43,25.7-13.07
			c3.49,2.1,4.96,8.94,5.74,13.86c1.33,8.43,4.93,11.39,13.84,11.28c42.4-0.5,84.82-0.08,127.23-0.39
			c5.51-0.04,11.3-1.64,16.44-3.77c20.14-8.35,34.67-3.07,46.09,19.87c-5.07-1.16-8.84-0.92-10.93-2.68
			c-10.97-9.28-21.8-9.69-33.93-2.08c-3.78,2.37-9.28,2.74-13.99,2.76c-41.17,0.2-82.35,0.27-123.52,0.02
			c-10.93-0.07-19.71,2.16-26.66,11.84c-6.63,9.22-14.6,9.03-21.07-0.38c-6.56-9.53-15.15-11.47-25.55-11.43
			c-41.17,0.16-82.35,0.27-123.52-0.16c-6.11-0.06-12.5-2.44-18.22-4.96c-10.46-4.6-19.76-4.05-28.88,3.07
			C462.04,237.66,458.33,238.42,452.29,240.98z"/>
		<path class="st1" d="M543.5,516.23c-37.71,42.41-119.75,50.37-169.87,0C430.71,516.23,486.63,516.23,543.5,516.23z"/>
		<path class="st1" d="M966.95,515.88c-52.87,52.53-135.43,40.78-170.39,0C853.16,515.88,909.06,515.88,966.95,515.88z"/>
		<path class="st1" d="M460.45,340.7c-11.43,29.38-21.99,56.49-32.53,83.61c-9.09,23.4-18.03,46.86-27.33,70.18
			c-1.47,3.68-4.51,6.72-6.83,10.06c-1.52-0.86-3.04-1.72-4.56-2.58c23.47-60.62,46.93-121.24,71.57-184.88
			c24.05,63.55,46.96,124.1,69.88,184.65c-1.14,0.88-2.28,1.75-3.41,2.63c-2.77-3.57-6.58-6.73-8.14-10.77
			c-18.06-46.84-35.77-93.82-53.59-140.75C464.25,349.55,462.8,346.34,460.45,340.7z"/>
		<path class="st1" d="M948.22,504.68c-2.41-3.69-5.59-7.09-7.13-11.11c-17.82-46.5-35.39-93.1-53.06-139.67
			c-1.38-3.64-3.03-7.18-5.55-13.12c-14.43,37.14-27.93,71.87-41.41,106.6c-6.25,16.11-12.26,32.33-18.86,48.3
			c-1.41,3.4-4.92,5.92-7.47,8.85c-1.15-0.87-2.31-1.75-3.46-2.62c23.39-60.38,46.78-120.77,71.58-184.8
			c24.11,63.69,46.98,124.09,69.84,184.5C951.21,502.63,949.71,503.65,948.22,504.68z"/>
		<path class="st1" d="M872.04,275.64c-7.46-12.39-4.63-21.07,5.11-24.92c8.87-3.5,19.01,1.09,22.15,10.03
			c3.49,9.95-1.82,19.54-13.2,22.34c-6.49,1.6-12.93,3.36-11.57,11.2c0.55,3.21,5.99,7.95,9.09,7.87c7.5-0.21,9.87-5.9,8.86-13.22
			c-0.18-1.32,2.04-2.96,3.29-4.64c6.35,9.34,4.96,17.96-3.27,23.32c-8.4,5.47-19.75,2.4-24.31-6.59
			c-4.29-8.46-0.84-19.02,7.9-23.02c3.31-1.51,7.78-1.11,10.45-3.2c2.81-2.2,6.01-6.68,5.51-9.56c-0.53-3.04-5.43-7.68-8.02-7.43
			c-3.5,0.34-7.37,4.15-9.65,7.46C872.51,267.98,872.74,272.13,872.04,275.64z"/>
		<path class="st1" d="M472.87,284.64c6.68,13.02,3.79,21.17-6.03,24.73c-8.81,3.19-19.06-1.97-21.74-10.94
			c-3.07-10.25,2.37-18.38,13.93-22.16c3.91-1.28,9.65-3.95,10.19-6.8c0.64-3.39-3.43-7.66-5.46-11.55
			c-3.79,2.15-8.45,3.57-11.09,6.69c-2.02,2.39-1.47,6.94-2.36,12.27c-7.77-10.24-6.57-18.94,1.54-24.46
			c7.87-5.35,18.72-3.02,23.68,5.1c5.21,8.52,2.09,19.96-6.93,24.19c-2.9,1.36-7.04,0.79-9.29,2.68c-3.05,2.57-6.97,6.95-6.56,10.02
			c0.41,3.07,5.81,7.7,8.82,7.56c3.04-0.14,6.33-4.99,8.6-8.38C471.83,291.11,472.02,287.66,472.87,284.64z"/>
		<path class="st1" d="M665.16,164.4c5.34,0,9.28,0,14.85,0c0.86,8.09,1.73,16.32,2.71,25.58c-6.51,0-11.94,0-18.92,0
			C664.24,181.66,664.66,173.77,665.16,164.4z"/>
	</g>
</g>
</svg>
