<?xml version="1.0" encoding="utf-8"?>
<!-- Generator: Adobe Illustrator 24.2.0, SVG Export Plug-In . SVG Version: 6.00 Build 0)  -->
<svg version="1.1" id="Layer_1" xmlns="http://www.w3.org/2000/svg" xmlns:xlink="http://www.w3.org/1999/xlink" x="0px" y="0px"
	 viewBox="0 0 396 612" style="enable-background:new 0 0 396 612;" xml:space="preserve">
<style type="text/css">
	.st0{clip-path:url(#SVGID_2_);fill:#FF9200;}
	.st1{clip-path:url(#SVGID_2_);fill:none;stroke:#929292;}
	.st2{clip-path:url(#SVGID_4_);}
	.st3{fill:#FFFFFF;}
</style>
<g>
	<defs>
		<rect id="SVGID_1_" x="91" y="177" width="211" height="222.2"/>
	</defs>
	<clipPath id="SVGID_2_">
		<use xlink:href="#SVGID_1_"  style="overflow:visible;"/>
	</clipPath>
	<rect x="92.5" y="178.6" class="st0" width="207.9" height="219.1"/>
	<rect x="92.5" y="178.6" class="st1" width="207.9" height="219.1"/>
</g>
<g>
	<defs>
		<rect id="SVGID_3_" x="76.8" y="179.6" width="239.4" height="217"/>
	</defs>
	<clipPath id="SVGID_4_">
		<use xlink:href="#SVGID_3_"  style="overflow:visible;"/>
	</clipPath>
	<g class="st2">
		<path class="st3" d="M129.3,271.1c0-20.8,15.7-34.8,35.9-34.8c16.7,0,25.4,9.2,29.8,18l-14.9,7.1c-2.2-5.3-8-9.8-14.9-9.8
			c-10.5,0-18.2,8.5-18.2,19.4s7.8,19.4,18.2,19.4c7,0,12.7-4.4,14.9-9.8l14.9,7.1c-4.3,8.7-13.1,18-29.8,18
			C145,305.9,129.3,291.8,129.3,271.1z"/>
		<path class="st3" d="M195,237.5h19.6l16.5,48.5l16.6-48.5h19.6l-25.4,67.2h-21.8L195,237.5z"/>
	</g>
	<g class="st2">
		<path class="st3" d="M123.6,359.8c0-3,2.3-5.1,5.2-5.1c2.4,0,3.7,1.3,4.3,2.6l-2.2,1c-0.3-0.8-1.2-1.4-2.2-1.4
			c-1.5,0-2.7,1.2-2.7,2.8c0,1.6,1.1,2.8,2.7,2.8c1,0,1.9-0.6,2.2-1.4l2.2,1c-0.6,1.3-1.9,2.6-4.3,2.6
			C125.9,364.9,123.6,362.8,123.6,359.8z"/>
		<path class="st3" d="M136.6,360.7l-3.7-5.8h2.9l2.1,3.6l2.1-3.6h2.9l-3.7,5.8v4h-2.5V360.7z"/>
		<path class="st3" d="M143.5,354.9h5.6c1.9,0,2.9,1.3,2.9,2.5c0,1.2-0.7,2-1.7,2.2c1,0.2,1.9,1.2,1.9,2.4c0,1.4-1,2.7-2.9,2.7h-5.7
			V354.9z M148.5,358.7c0.5,0,0.9-0.4,0.9-0.9c0-0.5-0.4-0.8-0.9-0.8h-2.5v1.7H148.5z M148.6,362.6c0.6,0,1-0.4,1-0.9
			c0-0.5-0.4-0.9-1-0.9h-2.5v1.8H148.6z"/>
		<path class="st3" d="M153.5,354.9h7.2v2.1H156v1.6h4.6v2.1H156v1.8h4.7v2.1h-7.2V354.9z"/>
		<path class="st3" d="M166,361.4h-1.3v3.3h-2.5v-9.8h4.9c2.2,0,3.4,1.4,3.4,3.3c0,1.7-1,2.6-2,2.9l2,3.6h-2.9L166,361.4z
			 M166.7,357h-2v2.2h2c0.7,0,1.2-0.4,1.2-1.1S167.4,357,166.7,357z"/>
		<path class="st3" d="M174.6,354.9h2.9l2.4,7.1l2.4-7.1h2.9l-3.7,9.8h-3.2L174.6,354.9z"/>
		<path class="st3" d="M190.4,354.7c3,0,5.2,2.1,5.2,5.1c0,3-2.2,5.1-5.2,5.1s-5.2-2.1-5.2-5.1C185.1,356.8,187.4,354.7,190.4,354.7
			z M190.4,357c-1.6,0-2.7,1.2-2.7,2.8c0,1.6,1,2.8,2.7,2.8c1.6,0,2.7-1.2,2.7-2.8C193,358.2,192,357,190.4,357z"/>
		<path class="st3" d="M196.9,354.9h2.5v7.6h3.9v2.2h-6.5V354.9z"/>
		<path class="st3" d="M204.3,354.9h2.6v5.7c0,1.2,0.6,2,2,2c1.4,0,2-0.8,2-2v-5.7h2.6v5.8c0,2.4-1.4,4.2-4.5,4.2s-4.6-1.7-4.6-4.1
			V354.9z"/>
		<path class="st3" d="M217.7,358.8v5.9h-2.5v-9.8h2.6l4,5.6v-5.6h2.5v9.8h-2.4L217.7,358.8z"/>
		<path class="st3" d="M228.2,357.1h-2.7v-2.2h8v2.2h-2.7v7.6h-2.5V357.1z"/>
		<path class="st3" d="M234.7,354.9h7.2v2.1h-4.7v1.6h4.6v2.1h-4.6v1.8h4.7v2.1h-7.2V354.9z"/>
		<path class="st3" d="M243.4,354.9h7.2v2.1h-4.7v1.6h4.6v2.1h-4.6v1.8h4.7v2.1h-7.2V354.9z"/>
		<path class="st3" d="M255.8,361.4h-1.3v3.3H252v-9.8h4.9c2.2,0,3.4,1.4,3.4,3.3c0,1.7-1,2.6-2,2.9l2,3.6h-2.9L255.8,361.4z
			 M256.5,357h-2v2.2h2c0.7,0,1.2-0.4,1.2-1.1S257.2,357,256.5,357z"/>
		<path class="st3" d="M262.4,361.4c0.7,0.7,1.8,1.3,3.1,1.3c0.9,0,1.4-0.4,1.4-0.8c0-0.6-0.6-0.8-1.7-1c-1.6-0.3-3.9-0.7-3.9-3.1
			c0-1.6,1.4-3.1,3.9-3.1c1.6,0,2.9,0.5,4,1.4l-1.4,1.8c-0.8-0.7-1.9-1-2.8-1c-0.8,0-1.2,0.3-1.2,0.8c0,0.5,0.6,0.7,1.7,0.9
			c1.6,0.3,3.8,0.8,3.8,3c0,2-1.5,3.3-4.1,3.3c-2,0-3.4-0.6-4.3-1.6L262.4,361.4z"/>
	</g>
</g>
</svg>
