<svg id="Layer_1" data-name="Layer 1" xmlns="http://www.w3.org/2000/svg" viewBox="0 0 314 314"><defs><style>.cls-1{fill:#999;}.cls-2{fill:#fff;}.cls-3,.cls-4{fill:none;stroke-miterlimit:10;}.cls-3{stroke:#999;}.cls-4{stroke:#fff;fill-rule:evenodd;}</style></defs><circle class="cls-1" cx="157" cy="157" r="157"/><path class="cls-2" d="M677.5,355.12793v-97.5c0-20.59619,21.75684-37.352,48.5-37.352s48.5,16.75586,48.5,37.352v97.5Z" transform="translate(-567.5 -168.5)"/><path class="cls-2" d="M726,220.77594c26.46729,0,48,16.53166,48,36.85184v97H678v-97c0-20.32018,21.53271-36.85184,48-36.85184m0-1c-27.062,0-49,16.94687-49,37.85184v98h98v-98c0-20.905-21.938-37.85184-49-37.85184Z" transform="translate(-567.5 -168.5)"/><path class="cls-2" d="M686.333,389.34961a8.84324,8.84324,0,0,1-8.833-8.833V357.68311h97V380.5166a8.84355,8.84355,0,0,1-8.833,8.833Z" transform="translate(-567.5 -168.5)"/><path class="cls-2" d="M774,358.18335v22.33331a8.3428,8.3428,0,0,1-8.33331,8.33335H686.33331A8.34281,8.34281,0,0,1,678,380.51663V358.18335h96m1-1H677v23.33331a9.33332,9.33332,0,0,0,9.33331,9.33335h79.33338A9.33332,9.33332,0,0,0,775,380.51666V357.18335Z" transform="translate(-567.5 -168.5)"/><line class="cls-3" x1="158.5" y1="205.01668" x2="158.5" y2="215.38705"/><line class="cls-1" x1="158.5" y1="205.01668" x2="158.5" y2="215.38705"/><path class="cls-4" d="M726.12641,388.95415v4.59359a7.009,7.009,0,0,1-7.009,7.009H699.04606a7.009,7.009,0,0,0-7.009,7.009v0a7.009,7.009,0,0,0,7.009,7.009h50.019a7.009,7.009,0,0,1,7.009,7.009v.95579a7.009,7.009,0,0,1-7.009,7.009H731.22387a7.009,7.009,0,0,0-7.009,7.009v3.82312" transform="translate(-567.5 -168.5)"/></svg>