<?xml version="1.0" encoding="utf-8"?>
<!-- Generator: Adobe Illustrator 24.2.0, SVG Export Plug-In . SVG Version: 6.00 Build 0)  -->
<svg version="1.1" id="Layer_1" xmlns="http://www.w3.org/2000/svg" xmlns:xlink="http://www.w3.org/1999/xlink" x="0px" y="0px"
	 viewBox="0 0 1366 768" style="enable-background:new 0 0 1366 768;" xml:space="preserve">
<style type="text/css">
	.st0{fill:#999999;}
	.st1{fill:#FFFFFF;}
</style>
<g>
	<circle class="st0" cx="616.3" cy="429.3" r="616.3"/>
</g>
<g>
	<g>
		<path class="st1" d="M266.5,762.9c-2.2,0.2-4.4,0.6-6.6,0.7c-11.4,0.2-17.6-9.6-11.4-19.1c18.8-29.1,25.9-60.7,23.5-95.1
			c-1.3-19.2-0.8-38.4,8.2-56.2c16.5-32.5,59-53.8,97.1-47.1c11,1.9,15.9-1,21.2-10.1c48.7-83.7,115.2-151.4,190.7-211
			c109.1-86.1,218-172.6,327-258.9c6.2-4.9,12.8-7.9,19.3-1.4c6.4,6.4,3.5,13.1-1.2,19.4c-64.9,87.4-129.1,175.4-195,262.2
			c-38.3,50.4-78.2,99.5-119.2,147.7c-41.5,48.8-93.9,84.9-148.1,118.1c-7.9,4.9-10.1,9.2-8.7,18.4c7.1,46.1-16,86.6-59.1,104.2
			c-37.3,15.2-76.7,20.9-116.3,26.1c-7.2,0.9-14.3,1.6-21.5,2.4C266.5,763,266.5,762.9,266.5,762.9z M562.5,517.9
			c11.2-10.9,22-19.7,30.8-30.2c40.2-48.5,80.9-96.7,119.5-146.6c49-63.3,96.2-128,144.1-192.1c1.7-2.3,3.1-4.8,4.6-7.3
			c-3.6,0.5-6,1.9-8.1,3.6c-87.8,70.2-176,139.8-263.1,210.8C558.8,382,529.9,411,500,438.6c-7.4,6.9-6.9,8.4,2,13.6
			c4.3,2.5,8.5,5.3,12.5,8.3C534.5,475.2,550.5,493.4,562.5,517.9z M283.6,729.3c3.3-0.7,4.6-0.7,5.6-1.1c5.1-2.4,10.3-4.7,15.2-7.4
			c31.3-17.2,58.9-39.4,84.8-63.8c3.3-3.1,8.6-5.8,12.8-5.6c3.3,0.1,8.8,4.6,9.2,7.6c0.5,4.5-1.1,11.1-4.4,14
			c-17.7,15.9-36.2,30.9-54.5,46.2c-2.5,2.1-5.2,4-7.8,6c22.9-3.1,44.7-8.5,64.5-19.7c3.2-1.8,6.3-4.1,9.1-6.7
			c24-22.2,29.4-61.3,12.7-91.1c-16.7-29.8-52.3-45.4-85.5-35.7c-38.9,11.4-51.5,34.5-49.3,69.8C297.8,671.2,296.3,700,283.6,729.3z
			 M455.6,595.7c26.9-19.1,55.1-38.9,82.9-59.2c1.8-1.3,2.3-6.8,1.2-9.3c-12-26.5-32.6-44.8-57.5-58.7c-2-1.1-7.2,0.4-8.9,2.4
			c-8.7,10.7-17,21.7-24.8,33.1c-11.8,17.2-23.2,34.8-33.9,50.9C428.4,568.6,440.9,581.1,455.6,595.7z"/>
		<path class="st1" d="M562.5,517.9c-12-24.5-28-42.7-48-57.5c-4-3-8.2-5.7-12.5-8.3c-8.9-5.2-9.4-6.7-2-13.6
			c29.9-27.7,58.8-56.6,90.3-82.3c87.1-71,175.3-140.7,263.1-210.8c2.1-1.7,4.5-3.1,8.1-3.6c-1.5,2.4-2.9,5-4.6,7.3
			c-47.9,64.1-95.1,128.8-144.1,192.1c-38.6,49.8-79.3,98-119.5,146.6C584.5,498.2,573.7,507,562.5,517.9z"/>
		<path class="st0" d="M283.6,729.3c12.7-29.3,14.2-58.1,12.4-87.6c-2.2-35.3,10.4-58.4,49.3-69.8c33.2-9.7,68.8,5.9,85.5,35.7
			c16.7,29.8,11.3,68.9-12.7,91.1c-2.7,2.5-5.8,4.8-9.1,6.7c-19.8,11.3-41.6,16.6-64.5,19.7c2.6-2,5.3-3.9,7.8-6
			c18.3-15.3,36.8-30.3,54.5-46.2c3.2-2.9,4.9-9.5,4.4-14c-0.4-3-5.9-7.5-9.2-7.6c-4.3-0.1-9.5,2.5-12.8,5.6
			c-25.9,24.4-53.5,46.5-84.8,63.8c-4.9,2.7-10.1,5-15.2,7.4C288.2,728.7,286.9,728.7,283.6,729.3z M347.4,595.7
			c-4.9,2.8-8.7,4.4-11.7,6.9c-20.7,17.2-27,40.6-27.6,66.1c-0.2,9.4,4.5,14.7,12,14.8c7.4,0.1,11.9-4.8,12.2-14.5
			c0.7-20.1,5.4-38.1,22.6-51.3c2.7-2.1,3.5-9.3,2.3-13.2C356.2,601,351.1,598.8,347.4,595.7z"/>
		<path class="st0" d="M455.6,595.7c-14.7-14.6-27.2-27.1-41-40.8c10.7-16.1,22-33.7,33.9-50.9c7.8-11.3,16.1-22.4,24.8-33.1
			c1.6-2,6.9-3.5,8.9-2.4c24.8,13.9,45.5,32.3,57.5,58.7c1.1,2.5,0.6,8-1.2,9.3C510.7,556.8,482.5,576.6,455.6,595.7z"/>
		<path class="st1" d="M347.4,595.7c3.7,3.1,8.8,5.3,9.8,8.8c1.2,3.9,0.4,11.1-2.3,13.2c-17.2,13.1-21.9,31.1-22.6,51.3
			c-0.3,9.7-4.8,14.6-12.2,14.5c-7.5-0.1-12.2-5.4-12-14.8c0.7-25.5,6.9-49,27.6-66.1C338.8,600.1,342.6,598.5,347.4,595.7z"/>
	</g>
</g>
</svg>
