<svg id="Layer_1" data-name="Layer 1" xmlns="http://www.w3.org/2000/svg" viewBox="0 0 378 378"><defs><style>.cls-1{fill:#999;}.cls-2{fill:#fff;}</style></defs><circle class="cls-1" cx="189" cy="189" r="189"/><path class="cls-2" d="M591.66509,386.13476a51.82876,51.82876,0,0,0-51.82783,51.66H643.49292A51.82875,51.82875,0,0,0,591.66509,386.13476Z" transform="translate(-501 -209)"/><path class="cls-2" d="M782.17217,387.01919a51.82876,51.82876,0,0,0-51.82783,51.66006H834A51.82876,51.82876,0,0,0,782.17217,387.01919Z" transform="translate(-501 -209)"/><circle class="cls-2" cx="189.36792" cy="131.68396" r="40.68396"/><circle class="cls-2" cx="283.64858" cy="138.58255" r="32.01651"/><path class="cls-2" d="M628.60938,449.5a61.58651,61.58651,0,0,1,123.165,0Z" transform="translate(-501 -209)"/><path class="cls-1" d="M690.19214,389.11484A61.19647,61.19647,0,0,1,751.267,449H629.11737a61.19646,61.19646,0,0,1,61.07477-59.88516m0-1A62.08725,62.08725,0,0,0,628.106,450h124.1723a62.08731,62.08731,0,0,0-62.08618-61.88516Z" transform="translate(-501 -209)"/><circle class="cls-2" cx="93.14151" cy="137.69811" r="32.01651"/></svg>