<?xml version="1.0" encoding="utf-8"?>
<!-- Generator: Adobe Illustrator 24.2.0, SVG Export Plug-In . SVG Version: 6.00 Build 0)  -->
<svg version="1.1" id="Layer_1" xmlns="http://www.w3.org/2000/svg" xmlns:xlink="http://www.w3.org/1999/xlink" x="0px" y="0px"
	 viewBox="0 0 1366 768" style="enable-background:new 0 0 1366 768;" xml:space="preserve">
<style type="text/css">
	.st0{fill:#999999;}
	.st1{fill:#FFFFFF;}
</style>
<circle class="st0" cx="679" cy="394" r="643"/>
<g>
	<g>
		<path class="st1" d="M669.97852,685.52917c-2.34583-184.8349-4.65247-366.57855-6.95441-547.95544
			c13.84845-0.98755,25.65808-1.8297,37.84222-2.69853c0,181.40373,0,364.21118,0,550.63812
			c17.92059,0,37.40186-0.13171,56.87952,0.07861c6.00476,0.06488,16.71277-0.23492,17.28149,1.83081
			c6.91882,25.12946,28.62787,11.95575,44.73474,17.91107c0,8.86029,0,18.16431,0,28.87787c-89.00366,0-177.82495,0-268.41608,0
			c0-9.41846,0-18.74152,0-30.95673c8.47607,0,16.91016,1.33618,24.62585-0.44299
			c5.68262-1.31036,10.18262-7.13763,15.6579-10.13251c5.34637-2.9245,11.18207-6.56787,16.94153-6.82794
			C627.53717,684.99512,646.56586,685.52917,669.97852,685.52917z"/>
		<path class="st1" d="M275.47589,98.13295c17.86179-42.20602,46.02869-53.7951,80.40955-41.4424
			c14.55954,5.23109,30.56418,8.75465,45.96246,8.94339c73.86145,0.90532,147.74585-0.09095,221.60834,0.77036
			c17.24866,0.20113,26.24896-3.29415,28.77863-22.29585c3.09412-23.24145,27.99969-35.93617,47.52509-24.1667
			c6.45636,3.89172,9.16937,16.53099,10.60938,25.6424c2.46564,15.60097,9.12677,21.05999,25.59833,20.86619
			c78.43109-0.92277,156.88086-0.15653,235.31879-0.72212c10.18365-0.07343,20.89789-3.03041,30.40491-6.97123
			c37.242-15.43746,64.11798-5.67035,85.24506,36.75038c-9.37744-2.14582-16.3573-1.7065-20.20837-4.96498
			c-20.28528-17.16402-40.31384-17.91707-62.76501-3.83852c-6.99097,4.38385-17.15759,5.06643-25.88196,5.10932
			c-76.1554,0.37463-152.31519,0.49503-228.4696,0.03598c-20.21521-0.12187-36.45276,3.9921-49.31866,21.89485
			c-12.25366,17.0508-27.00604,16.71069-38.97858-0.69602c-12.12653-17.6306-28.0155-21.21114-47.26282-21.13712
			c-76.15613,0.29292-152.31802,0.50061-228.46695-0.29655c-11.30585-0.11839-23.1171-4.51047-33.70557-9.17184
			c-19.34573-8.51666-36.54468-7.48668-53.42496,5.68651C293.50925,91.98775,286.65402,93.39835,275.47589,98.13295z"/>
		<path class="st1" d="M444.17947,607.22717c-69.7496,78.43225-221.48267,93.15833-314.19797,0
			C235.56122,607.22717,339,607.22717,444.17947,607.22717z"/>
		<path class="st1" d="M1227.38916,606.57996c-97.78711,97.16351-250.48517,75.42432-315.15771,0
			C1016.93097,606.57996,1120.30872,606.57996,1227.38916,606.57996z"/>
		<path class="st1" d="M290.56885,282.57684c-21.14331,54.34299-40.67848,104.48163-60.15829,154.64178
			c-16.8091,43.28302-33.34224,86.6756-50.54922,129.79956c-2.71262,6.79828-8.34793,12.4303-12.63187,18.60162
			c-2.80956-1.59375-5.61909-3.18744-8.42863-4.78107c43.40207-112.12048,86.80415-224.24091,132.37206-341.95639
			c44.48013,117.54251,86.86078,229.5369,129.24139,341.53134c-2.10541,1.62225-4.21085,3.24457-6.31625,4.86676
			c-5.1153-6.60187-12.17181-12.45544-15.04935-19.91998c-33.39865-86.63947-66.15408-173.52676-99.12726-260.33044
			C297.61026,298.94568,294.92581,293.00314,290.56885,282.57684z"/>
		<path class="st1" d="M1192.7373,585.86633c-4.46643-6.82159-10.3335-13.10632-13.18506-20.54675
			c-32.9646-86.01181-65.45483-172.20523-98.13647-258.32565c-2.55408-6.7305-5.5968-13.27545-10.26111-24.26019
			c-26.69238,68.69916-51.66553,132.92444-76.59827,197.16537c-11.56714,29.8035-22.67255,59.7959-34.88715,89.33051
			c-2.59882,6.28387-9.10718,10.95099-13.81433,16.36298c-2.13477-1.61646-4.26953-3.23291-6.4043-4.84943
			c43.26251-111.68713,86.52509-223.37424,132.4024-341.81183c44.5896,117.79118,86.8844,229.5201,129.17908,341.24902
			C1198.26721,582.07568,1195.5022,583.97101,1192.7373,585.86633z"/>
		<path class="st1" d="M1051.85144,162.23557c-13.79907-22.92372-8.55847-38.97246,9.45691-46.09045
			c16.40222-6.4806,35.16455,2.01624,40.96826,18.55328c6.45715,18.39883-3.37378,36.13403-24.41687,41.31686
			c-12.00977,2.95802-23.90613,6.20572-21.40479,20.71722c1.02283,5.93388,11.08215,14.71294,16.82104,14.55577
			c13.87158-0.37979,18.25427-10.91058,16.39001-24.45183c-0.33496-2.43282,3.77063-5.47701,6.08301-8.5844
			c11.74561,17.27757,9.17883,33.21397-6.04004,43.13638c-15.52905,10.12463-36.53564,4.4333-44.96619-12.1826
			c-7.94055-15.65028-1.55725-35.18558,14.60706-42.56828c6.1156-2.79312,14.39185-2.04617,19.32153-5.91895
			c5.1908-4.07799,11.1095-12.36426,10.18848-17.68236c-0.97437-5.62648-10.04749-14.21263-14.83325-13.74992
			c-6.4729,0.62573-13.63367,7.67688-17.85693,13.79529C1052.72034,148.07892,1053.14453,155.74994,1051.85144,162.23557z"/>
		<path class="st1" d="M313.54282,178.89063c12.34659,24.07864,7.01761,39.16187-11.14572,45.73946
			c-16.29395,5.90059-35.25125-3.63931-40.21555-20.23767c-5.67056-18.95979,4.38742-33.99352,25.7601-40.99033
			c7.23907-2.36992,17.84265-7.29675,18.83841-12.57706c1.18121-6.26349-6.34845-14.16969-10.10297-21.36398
			c-7.01266,3.97835-15.63602,6.59683-20.51523,12.37628c-3.73093,4.4193-2.7262,12.83656-4.36227,22.69574
			c-14.36523-18.93648-12.15109-35.03651,2.84625-45.2403c14.55225-9.90088,34.6221-5.57822,43.80136,9.43406
			c9.64124,15.76775,3.8577,36.92174-12.81039,44.73505c-5.36896,2.51674-13.0253,1.45647-17.17554,4.95248
			c-5.64923,4.75874-12.89072,12.84746-12.1293,18.52692c0.76028,5.67119,10.74066,14.23813,16.32135,13.97421
			c5.63062-0.26633,11.70139-9.23096,15.91196-15.50383C311.62897,190.8474,311.98151,184.46333,313.54282,178.89063z"/>
		<path class="st1" d="M669.20123-43.50259c9.88098,0,17.15997,0,27.46814,0c1.58594,14.9681,3.19922,30.19331,5.01343,47.31498
			c-12.03839,0-22.08044,0-35.00092,0C667.50183-11.58693,668.27887-26.1807,669.20123-43.50259z"/>
	</g>
</g>
</svg>
