<?xml version="1.0" encoding="utf-8"?>
<!-- Generator: Adobe Illustrator 24.2.0, SVG Export Plug-In . SVG Version: 6.00 Build 0)  -->
<svg version="1.1" id="Layer_1" xmlns="http://www.w3.org/2000/svg" xmlns:xlink="http://www.w3.org/1999/xlink" x="0px" y="0px"
	 viewBox="0 0 1366 768" style="enable-background:new 0 0 1366 768;" xml:space="preserve">
<style type="text/css">
	.st0{fill:#999999;}
	.st1{fill:#FFFFFF;}
</style>
<g>
	<g>
		<circle class="st0" cx="615.5" cy="444.5" r="615.5"/>
		<path class="st1" d="M605.5,724.1c-2.1-168.3-4.2-333.8-6.3-498.9c12.6-0.9,23.4-1.7,34.5-2.5c0,165.2,0,331.6,0,501.3
			c16.3,0,34.1-0.1,51.8,0.1c5.5,0.1,15.2-0.2,15.7,1.7c6.3,22.9,26.1,10.9,40.7,16.3c0,8.1,0,16.5,0,26.3c-81,0-161.9,0-244.4,0
			c0-8.6,0-17.1,0-28.2c7.7,0,15.4,1.2,22.4-0.4c5.2-1.2,9.3-6.5,14.3-9.2c4.9-2.7,10.2-6,15.4-6.2
			C566.9,723.7,584.2,724.1,605.5,724.1z"/>
		<path class="st1" d="M246.3,189.3c16.3-38.4,41.9-49,73.2-37.7c13.3,4.8,27.8,8,41.8,8.1c67.2,0.8,134.5-0.1,201.8,0.7
			c15.7,0.2,23.9-3,26.2-20.3c2.8-21.2,25.5-32.7,43.3-22c5.9,3.5,8.3,15.1,9.7,23.3c2.2,14.2,8.3,19.2,23.3,19
			c71.4-0.8,142.8-0.1,214.3-0.7c9.3-0.1,19-2.8,27.7-6.3c33.9-14.1,58.4-5.2,77.6,33.5c-8.5-2-14.9-1.6-18.4-4.5
			c-18.5-15.6-36.7-16.3-57.1-3.5c-6.4,4-15.6,4.6-23.6,4.7c-69.3,0.3-138.7,0.5-208,0c-18.4-0.1-33.2,3.6-44.9,19.9
			c-11.2,15.5-24.6,15.2-35.5-0.6c-11-16.1-25.5-19.3-43-19.2c-69.3,0.3-138.7,0.5-208-0.3c-10.3-0.1-21-4.1-30.7-8.4
			c-17.6-7.8-33.3-6.8-48.6,5.2C262.8,183.7,256.5,185,246.3,189.3z"/>
		<path class="st1" d="M399.9,652.9c-63.5,71.4-201.7,84.8-286.1,0C210,652.9,304.2,652.9,399.9,652.9z"/>
		<path class="st1" d="M1113,652.3c-89,88.5-228.1,68.7-286.9,0C921.4,652.3,1015.5,652.3,1113,652.3z"/>
		<path class="st1" d="M260.1,357.3c-19.3,49.5-37,95.1-54.8,140.8c-15.3,39.4-30.4,78.9-46,118.2c-2.5,6.2-7.6,11.3-11.5,16.9
			c-2.6-1.5-5.1-2.9-7.7-4.4c39.5-102.1,79-204.2,120.5-311.3c40.5,107,79.1,209,117.7,311c-1.9,1.5-3.8,3-5.8,4.4
			c-4.7-6-11.1-11.3-13.7-18.1c-30.4-78.9-60.2-158-90.3-237C266.5,372.2,264.1,366.8,260.1,357.3z"/>
		<path class="st1" d="M1081.5,633.4c-4.1-6.2-9.4-11.9-12-18.7c-30-78.3-59.6-156.8-89.4-235.2c-2.3-6.1-5.1-12.1-9.3-22.1
			c-24.3,62.5-47,121-69.7,179.5c-10.5,27.1-20.6,54.4-31.8,81.3c-2.4,5.7-8.3,10-12.6,14.9c-1.9-1.5-3.9-2.9-5.8-4.4
			c39.4-101.7,78.8-203.4,120.5-311.2c40.6,107.2,79.1,209,117.6,310.7C1086.5,630,1084,631.7,1081.5,633.4z"/>
		<path class="st1" d="M953.2,247.7c-12.6-20.9-7.8-35.5,8.6-42c14.9-5.9,32,1.8,37.3,16.9c5.9,16.8-3.1,32.9-22.2,37.6
			c-10.9,2.7-21.8,5.7-19.5,18.9c0.9,5.4,10.1,13.4,15.3,13.3c12.6-0.3,16.6-9.9,14.9-22.3c-0.3-2.2,3.4-5,5.5-7.8
			c10.7,15.7,8.4,30.2-5.5,39.3c-14.1,9.2-33.3,4-40.9-11.1c-7.2-14.2-1.4-32,13.3-38.8c5.6-2.5,13.1-1.9,17.6-5.4
			c4.7-3.7,10.1-11.3,9.3-16.1c-0.9-5.1-9.1-12.9-13.5-12.5c-5.9,0.6-12.4,7-16.3,12.6C954,234.8,954.4,241.8,953.2,247.7z"/>
		<path class="st1" d="M281,262.9c11.2,21.9,6.4,35.7-10.1,41.6c-14.8,5.4-32.1-3.3-36.6-18.4c-5.2-17.3,4-31,23.5-37.3
			c6.6-2.2,16.2-6.6,17.2-11.5c1.1-5.7-5.8-12.9-9.2-19.5c-6.4,3.6-14.2,6-18.7,11.3c-3.4,4-2.5,11.7-4,20.7
			c-13.1-17.2-11.1-31.9,2.6-41.2c13.2-9,31.5-5.1,39.9,8.6c8.8,14.4,3.5,33.6-11.7,40.7c-4.9,2.3-11.9,1.3-15.6,4.5
			c-5.1,4.3-11.7,11.7-11,16.9c0.7,5.2,9.8,13,14.9,12.7c5.1-0.2,10.7-8.4,14.5-14.1C279.3,273.8,279.6,267.9,281,262.9z"/>
		<path class="st1" d="M604.8,60.4c9,0,15.6,0,25,0c1.4,13.6,2.9,27.5,4.6,43.1c-11,0-20.1,0-31.9,0C603.3,89.4,604,76.2,604.8,60.4
			z"/>
	</g>
</g>
</svg>
