<svg id="Layer_1" data-name="Layer 1" xmlns="http://www.w3.org/2000/svg" xmlns:xlink="http://www.w3.org/1999/xlink" viewBox="0 0 208.87764 220.08859"><defs><style>.cls-1,.cls-4{fill:none;}.cls-2{clip-path:url(#clip-path);}.cls-3{fill:#ff9200;}.cls-4{stroke:#929292;}.cls-5{clip-path:url(#clip-path-2);}.cls-6{fill:#fff;}</style><clipPath id="clip-path" transform="translate(-0.01965 0.01011)"><rect class="cls-1" x="-1.05441" y="-1.08427" width="211.02575" height="222.23669"/></clipPath><clipPath id="clip-path-2" transform="translate(-0.01965 0.01011)"><rect class="cls-1" x="-15.22091" y="1.53916" width="239.35881" height="216.98983"/></clipPath></defs><g class="cls-2"><rect class="cls-3" x="0.5" y="0.4999" width="207.87764" height="219.08858"/><rect class="cls-4" x="0.5" y="0.5" width="207.87764" height="219.08859"/></g><g class="cls-5"><path class="cls-6" d="M37.31591,93.01632c0-20.752,15.71533-34.75489,35.8628-34.75489,16.72265,0,25.38623,9.16748,29.81884,18.03223L88.08837,83.34542a16.30156,16.30156,0,0,0-14.90966-9.77149c-10.47657,0-18.2334,8.46192-18.2334,19.44239s7.75683,19.44238,18.2334,19.44238a16.30234,16.30234,0,0,0,14.90966-9.77149l14.90918,7.05176c-4.332,8.66358-13.09619,18.03223-29.81884,18.03223C53.03124,127.7712,37.31591,113.66768,37.31591,93.01632Z" transform="translate(-0.01965 0.01011)"/><path class="cls-6" d="M102.99706,59.36983h19.644l16.52051,48.45508,16.62207-48.45508h19.64453L150.0415,126.56221H128.28173Z" transform="translate(-0.01965 0.01011)"/><path class="cls-6" d="M31.61279,181.71358a4.984,4.984,0,0,1,5.23144-5.06933,4.55776,4.55776,0,0,1,4.34961,2.63086l-2.1748,1.02832a2.37773,2.37773,0,0,0-2.17481-1.42579,2.84178,2.84178,0,0,0,0,5.67188,2.37845,2.37845,0,0,0,2.17481-1.42481l2.1748,1.02833a4.58771,4.58771,0,0,1-4.34961,2.63085A4.99275,4.99275,0,0,1,31.61279,181.71358Z" transform="translate(-0.01965 0.01011)"/><path class="cls-6" d="M44.57128,182.654l-3.71777-5.84765H43.7041l2.13086,3.61425,2.10107-3.61425h2.86523L47.09863,182.654v3.95313H44.57128Z" transform="translate(-0.01965 0.01011)"/><path class="cls-6" d="M51.51953,176.80636h5.55419a2.57347,2.57347,0,0,1,2.86524,2.498,2.18882,2.18882,0,0,1-1.67481,2.24805,2.34743,2.34743,0,0,1,1.86622,2.39551A2.608,2.608,0,0,1,57.25,186.60714H51.51953Zm4.981,3.791a.82975.82975,0,0,0,.86719-.85254.81875.81875,0,0,0-.86719-.83789H54.04687v1.69043Zm.08838,3.9082a.87729.87729,0,0,0,.96973-.89648.9071.9071,0,0,0-.96973-.92578h-2.542v1.82226Z" transform="translate(-0.01965 0.01011)"/><path class="cls-6" d="M61.50927,176.80636h7.18506v2.13085H64.03662v1.63086h4.55517v2.14551H64.03662v1.7627h4.65771v2.13086H61.50927Z" transform="translate(-0.01965 0.01011)"/><path class="cls-6" d="M73.98242,183.28585h-1.293v3.32129H70.1621v-9.80078h4.90772a3.1557,3.1557,0,0,1,3.40918,3.26171,2.971,2.971,0,0,1-1.95459,2.93946l1.99853,3.59961H75.62841Zm.70556-4.34864H72.68945v2.20411H74.688a1.10769,1.10769,0,1,0,0-2.20411Z" transform="translate(-0.01965 0.01011)"/><path class="cls-6" d="M82.59033,176.80636h2.86523l2.41016,7.06738L90.29,176.80636h2.86524l-3.70264,9.80078H86.2788Z" transform="translate(-0.01965 0.01011)"/><path class="cls-6" d="M98.34033,176.64425a5.07278,5.07278,0,1,1-5.2461,5.06933A4.976,4.976,0,0,1,98.34033,176.64425Zm0,2.23339A2.84178,2.84178,0,1,0,101,181.71358,2.64465,2.64465,0,0,0,98.34033,178.87764Z" transform="translate(-0.01965 0.01011)"/><path class="cls-6" d="M104.84765,176.80636h2.52686V184.403H111.313v2.2041h-6.46533Z" transform="translate(-0.01965 0.01011)"/><path class="cls-6" d="M112.311,176.80636h2.57129v5.74511a1.97668,1.97668,0,1,0,3.95312,0v-5.74511h2.57129v5.81835c0,2.43946-1.39648,4.15918-4.541,4.15918s-4.55469-1.73437-4.55469-4.14453Z" transform="translate(-0.01965 0.01011)"/><path class="cls-6" d="M125.69482,180.68526v5.92188h-2.52735v-9.80078h2.60059l3.96777,5.64257v-5.64257h2.542v9.80078h-2.43946Z" transform="translate(-0.01965 0.01011)"/><path class="cls-6" d="M136.228,179.01046H133.48v-2.2041h8.00879v2.2041h-2.73339v7.59668H136.228Z" transform="translate(-0.01965 0.01011)"/><path class="cls-6" d="M142.69189,176.80636h7.18555v2.13085h-4.65821v1.63086h4.55469v2.14551h-4.55469v1.7627h4.65821v2.13086h-7.18555Z" transform="translate(-0.01965 0.01011)"/><path class="cls-6" d="M151.34521,176.80636h7.18555v2.13085h-4.65821v1.63086h4.55469v2.14551h-4.55469v1.7627h4.65821v2.13086h-7.18555Z" transform="translate(-0.01965 0.01011)"/><path class="cls-6" d="M163.81884,183.28585h-1.293v3.32129h-2.52734v-9.80078h4.90723a3.1557,3.1557,0,0,1,3.40918,3.26171,2.97062,2.97062,0,0,1-1.95411,2.93946l1.99805,3.59961h-2.89453Zm.70508-4.34864h-1.99805v2.20411h1.99805a1.10773,1.10773,0,1,0,0-2.20411Z" transform="translate(-0.01965 0.01011)"/><path class="cls-6" d="M170.3413,183.33077a4.42933,4.42933,0,0,0,3.12989,1.293c.86718,0,1.3955-.36817,1.3955-.83789,0-.5586-.63183-.77832-1.6748-.999-1.61621-.32324-3.87891-.73535-3.87891-3.05664,0-1.6455,1.39551-3.07129,3.90821-3.07129a5.98054,5.98054,0,0,1,3.98242,1.36719l-1.38184,1.80664a4.55366,4.55366,0,0,0-2.76269-1.01367c-.83692,0-1.16016.33789-1.16016.76465,0,.51367.60254.69043,1.68945.89551,1.61621.33886,3.84961.80859,3.84961,3.02734,0,1.96875-1.4541,3.27734-4.085,3.27734a5.99319,5.99319,0,0,1-4.34863-1.55761Z" transform="translate(-0.01965 0.01011)"/></g></svg>
